<?xml version="1.0" ?><!DOCTYPE svg  PUBLIC '-//W3C//DTD SVG 1.1//EN'  'http://www.w3.org/Graphics/SVG/1.1/DTD/svg11.dtd'>
<?xml-stylesheet type="text/css" href="../css/svg.css"?>
<svg enable-background="new 0 0 128 128" id="Слой_1" version="1.1" viewBox="0 0 128 128" xml:space="preserve" xmlns="http://www.w3.org/2000/svg" xmlns:xlink="http://www.w3.org/1999/xlink"><g><polygon fill="none" points="79.801,20.237    85.358,19 87.97,24.538 92.135,25.268 96.476,20.95 101.28,24.005 99.212,29.767 101.64,33.229 107.763,33.245 109,38.802    103.462,41.414 102.732,45.579 107.05,49.92 103.995,54.724 98.233,52.655 94.771,55.084 94.755,61.207 89.198,62.444    86.586,56.906 82.421,56.176 78.08,60.494 73.276,57.439 75.345,51.677 72.916,48.215 66.793,48.199 65.556,42.642 71.094,40.03    71.824,35.865 67.506,31.524 70.561,26.72 76.323,28.788 79.785,26.36  " stroke="#323638" stroke-linecap="round" stroke-miterlimit="10" stroke-width="2"/><g><path d="M89.906,82.525c-1.56,1.755-2.686,3.022-3.062,4.065c-1.152,3.19-0.814,17.184-0.684,21.41H52.537    l-0.069-5.015c-0.158-6.53-7.979-6.53-11.317-6.53l-1.358,0.008c-0.361,0.003-0.718,0.012-1.069,0.021    c-0.391,0.01-0.775,0.02-1.152,0.02c-1.64,0-2.876-0.199-3.968-1.188c-1.478-1.338-1.497-4.217-1.497-4.231l0.275-16.827    c0.005-0.281-0.109-0.551-0.313-0.744s-0.468-0.288-0.762-0.27c-1.251,0.094-2.389-0.047-3.503-0.4    c-1.23-0.389-2.002-1.655-1.757-2.881c0.385-1.925,1.67-3.841,3.03-5.871c1.582-2.361,3.376-5.038,4.094-8.271    c0.837-3.776,0.199-6.185-0.044-6.9C33.223,32.421,46.917,20,65.057,20c3.504,0,6.746,0.236,9.744,0.693l0.005-2.04    C71.792,18.222,68.547,18,65.057,18c-19.344,0-33.932,13.37-33.932,31.099c0,0.131,0.029,0.268,0.079,0.389    c0.008,0.021,0.85,2.129,0.013,5.902c-0.636,2.865-2.245,5.267-3.802,7.59c-1.475,2.2-2.867,4.277-3.33,6.592    c-0.442,2.212,0.926,4.488,3.114,5.181c1.021,0.323,2.084,0.497,3.165,0.518l-0.259,15.796c0,0.154,0.013,3.793,2.155,5.733    c1.654,1.499,3.529,1.705,5.31,1.705c0.394,0,0.795-0.01,1.204-0.021c0.339-0.009,0.684-0.018,1.033-0.021l1.343-0.008    c4.782,0,9.221,0.555,9.317,4.568l0.083,5.99c0.008,0.547,0.453,0.986,1,0.986h35.643c0.271,0,0.531-0.11,0.72-0.306    s0.289-0.459,0.279-0.73c-0.183-5.118-0.443-18.993,0.532-21.694c0.246-0.681,1.372-1.949,2.677-3.417    c3.889-4.377,10.727-12.091,12.273-23.932l-1.932-0.694C100.419,70.663,93.952,77.972,89.906,82.525z" fill="#323638"/></g><circle cx="87.278" cy="40.722" fill="none" r="9.346" stroke="#323638" stroke-linecap="round" stroke-miterlimit="10" stroke-width="2"/></g></svg>