<?xml version="1.0" ?><!DOCTYPE svg  PUBLIC '-//W3C//DTD SVG 1.1//EN'  'http://www.w3.org/Graphics/SVG/1.1/DTD/svg11.dtd'>
<?xml-stylesheet type="text/css" href="../css/svg.css"?>
<svg enable-background="new 0 0 128 128" id="Слой_1" version="1.1" viewBox="0 0 128 128" xml:space="preserve" xmlns="http://www.w3.org/2000/svg" xmlns:xlink="http://www.w3.org/1999/xlink"><g><path d="M63.911,27.833c-12.42,0-22.525,10.104-22.525,22.525s10.105,22.525,22.525,22.525   s22.525-10.104,22.525-22.525S76.332,27.833,63.911,27.833z M63.911,70.883c-11.318,0-20.525-9.208-20.525-20.525   s9.208-20.525,20.525-20.525c11.317,0,20.525,9.208,20.525,20.525S75.229,70.883,63.911,70.883z" fill="#323638"/><path d="M94.05,47.155c1.195-2.057,1.459-4.534,0.724-6.796c-0.735-2.262-2.405-4.111-4.581-5.072   c-2.09-0.923-3.533-2.909-3.766-5.183c-0.438-4.291-4.015-7.526-8.319-7.526c-0.593,0-1.19,0.064-1.776,0.19   c-2.217,0.478-4.584-0.295-6.092-1.979C68.653,19.017,66.379,18,64,18s-4.653,1.017-6.24,2.789   c-1.508,1.685-3.881,2.456-6.092,1.979c-0.586-0.126-1.183-0.19-1.776-0.19c-4.305,0-7.881,3.235-8.319,7.526   c-0.232,2.273-1.675,4.259-3.766,5.183c-2.176,0.961-3.846,2.81-4.581,5.072c-0.735,2.262-0.471,4.739,0.725,6.796   c1.148,1.976,1.148,4.431,0,6.407c-1.195,2.057-1.459,4.534-0.724,6.796c0.735,2.263,2.405,4.111,4.581,5.072   c2.09,0.924,3.534,2.91,3.766,5.183c0.183,1.793,0.919,3.396,2.022,4.661L39.02,94.497c-0.083,0.35,0.028,0.718,0.292,0.963   s0.638,0.33,0.982,0.222l11.089-3.5l8.356,8.085c0.189,0.183,0.439,0.281,0.695,0.281c0.094,0,0.188-0.013,0.28-0.04   c0.345-0.101,0.609-0.379,0.692-0.729l2.127-8.938l4.005,18.371c0.077,0.354,0.34,0.639,0.688,0.744   c0.095,0.029,0.193,0.043,0.29,0.043c0.256,0,0.506-0.098,0.695-0.281l8.356-8.085l11.089,3.499   c0.34,0.107,0.712,0.025,0.976-0.215c0.263-0.241,0.378-0.604,0.302-0.953l-6.151-28.044c1.451-1.341,2.431-3.196,2.646-5.309   c0.232-2.273,1.676-4.259,3.766-5.183c2.176-0.96,3.846-2.809,4.581-5.072c0.735-2.262,0.471-4.739-0.725-6.796   C92.901,51.585,92.901,49.131,94.05,47.155z M59.867,97.609l-7.523-7.278c-0.264-0.255-0.647-0.346-0.996-0.235l-9.975,3.148   l3.923-16.484c1.322,0.87,2.901,1.378,4.596,1.378c0.593,0,1.19-0.064,1.776-0.19c2.218-0.478,4.584,0.295,6.092,1.979   c1.06,1.184,2.429,2.021,3.928,2.452l0.862,3.955L59.867,97.609z M87.609,102.706l-10.009-3.158   c-0.348-0.109-0.731-0.02-0.996,0.235l-7.495,7.251l-5.303-24.327c0.065,0.002,0.128,0.01,0.193,0.01   c2.379,0,4.653-1.017,6.24-2.789c1.508-1.685,3.875-2.458,6.092-1.979c0.586,0.126,1.184,0.19,1.776,0.19   c1.407,0,2.733-0.351,3.9-0.966L87.609,102.706z M92.872,59.74c-0.56,1.722-1.83,3.129-3.487,3.86   c-2.746,1.213-4.642,3.822-4.947,6.809c-0.178,1.746-1.043,3.257-2.306,4.291c-0.038,0.025-0.068,0.055-0.102,0.084   c-1.084,0.85-2.445,1.354-3.923,1.354c-0.451,0-0.907-0.049-1.354-0.146c-2.909-0.628-6.024,0.387-8.004,2.601   c-1.208,1.349-2.939,2.123-4.75,2.123s-3.542-0.774-4.75-2.123c-1.586-1.772-3.86-2.789-6.239-2.789   c-0.592,0-1.186,0.063-1.766,0.188c-0.447,0.096-0.903,0.146-1.354,0.146c-3.275,0-5.997-2.463-6.33-5.729   c-0.305-2.987-2.201-5.596-4.947-6.809c-1.656-0.731-2.927-2.139-3.486-3.86c-0.56-1.722-0.359-3.608,0.551-5.173   c1.509-2.596,1.509-5.821,0-8.417c-0.91-1.565-1.111-3.451-0.552-5.173c0.56-1.722,1.831-3.129,3.487-3.861   c2.747-1.212,4.642-3.821,4.947-6.809c0.333-3.266,3.055-5.729,6.33-5.729c0.452,0,0.907,0.049,1.354,0.146   c0.58,0.125,1.174,0.188,1.766,0.188h0c2.378,0,4.652-1.017,6.238-2.789C60.458,20.774,62.189,20,64,20s3.542,0.774,4.75,2.123   c1.98,2.213,5.095,3.228,8.004,2.601c0.447-0.096,0.903-0.146,1.354-0.146c3.275,0,5.997,2.463,6.33,5.729   c0.305,2.987,2.201,5.596,4.947,6.809c1.656,0.732,2.927,2.139,3.487,3.861c0.559,1.722,0.358,3.607-0.552,5.173   c-1.509,2.596-1.509,5.821,0,8.417C93.231,56.132,93.432,58.018,92.872,59.74z" fill="#323638"/></g></svg>