<?xml version="1.0" ?><!DOCTYPE svg  PUBLIC '-//W3C//DTD SVG 1.1//EN'  'http://www.w3.org/Graphics/SVG/1.1/DTD/svg11.dtd'>
<?xml-stylesheet type="text/css" href="../css/svg.css"?>
<svg enable-background="new 0 0 128 128" id="Слой_1" version="1.1" viewBox="0 0 128 128" xml:space="preserve" xmlns="http://www.w3.org/2000/svg" xmlns:xlink="http://www.w3.org/1999/xlink"><g><path d="M106.694,23.942H21.306c-1.823,0-3.306,1.502-3.306,3.35v51.786v0.082v6.413   c0,1.843,1.483,3.343,3.306,3.343h31.71c-0.327,2.721-1.363,11.339-1.694,14.085H47c-0.552,0-1,0.448-1,1s0.448,1,1,1h34   c0.552,0,1-0.448,1-1s-0.448-1-1-1h-4.324c-0.329-2.745-1.341-11.208-1.685-14.085h31.702c1.823,0,3.306-1.5,3.306-3.343v-6.413   v-0.082V27.292C110,25.445,108.517,23.942,106.694,23.942z M21.306,25.942h85.388c0.72,0,1.306,0.605,1.306,1.35v50.786H20V27.292   C20,26.548,20.586,25.942,21.306,25.942z M74.662,103H53.336c0.368-3.056,1.386-11.526,1.694-14.085h17.947   C73.341,91.962,74.305,100.021,74.662,103z M106.694,86.915H21.306c-0.72,0-1.306-0.603-1.306-1.343v-5.495h88v5.495   C108,86.312,107.414,86.915,106.694,86.915z" fill="#323638"/><path d="M63,47.987V72.5c0,0.552,0.448,1,1,1s1-0.448,1-1V47.987c2.88-0.479,5.085-2.981,5.085-5.995   c0-3.014-2.205-5.516-5.085-5.996V32.5c0-0.552-0.448-1-1-1s-1,0.448-1,1v3.496c-2.88,0.479-5.085,2.981-5.085,5.996   C57.915,45.005,60.12,47.508,63,47.987z M64,37.907c2.252,0,4.085,1.833,4.085,4.085c0,2.252-1.833,4.084-4.085,4.084   s-4.085-1.833-4.085-4.084C59.915,39.739,61.748,37.907,64,37.907z" fill="#323638"/><path d="M77.915,69.682V72.5c0,0.552,0.448,1,1,1s1-0.448,1-1v-2.818C82.795,69.202,85,66.7,85,63.687   c0-3.014-2.205-5.516-5.085-5.996V32.5c0-0.552-0.448-1-1-1s-1,0.448-1,1v25.191c-2.88,0.479-5.084,2.981-5.084,5.995   C72.831,66.7,75.035,69.202,77.915,69.682z M78.915,59.602c2.252,0,4.085,1.833,4.085,4.085c0,2.252-1.833,4.084-4.085,4.084   c-2.252,0-4.084-1.833-4.084-4.084C74.831,61.434,76.663,59.602,78.915,59.602z" fill="#323638"/><path d="M48.085,69.682V72.5c0,0.552,0.448,1,1,1s1-0.448,1-1v-2.818c2.88-0.479,5.084-2.981,5.084-5.995   c0-3.014-2.205-5.516-5.084-5.995V32.5c0-0.552-0.448-1-1-1s-1,0.448-1,1v25.191C45.205,58.17,43,60.672,43,63.687   C43,66.7,45.205,69.202,48.085,69.682z M49.085,59.602c2.252,0,4.084,1.833,4.084,4.085c0,2.252-1.833,4.084-4.084,4.084   c-2.252,0-4.085-1.833-4.085-4.084C45,61.434,46.833,59.602,49.085,59.602z" fill="#323638"/></g></svg>