<?xml version="1.0" ?><!DOCTYPE svg  PUBLIC '-//W3C//DTD SVG 1.1//EN'  'http://www.w3.org/Graphics/SVG/1.1/DTD/svg11.dtd'>
<?xml-stylesheet type="text/css" href="../css/svg.css"?>
<svg enable-background="new 0 0 128 128" id="Слой_1" version="1.1" viewBox="0 0 128 128" xml:space="preserve" xmlns="http://www.w3.org/2000/svg" xmlns:xlink="http://www.w3.org/1999/xlink"><g><circle cx="50.447" cy="29" fill="#323638" r="2"/><circle cx="40.047" cy="29" fill="#323638" r="2"/><circle cx="29.647" cy="29" fill="#323638" r="2"/><path d="M98,28H63.447c-0.553,0-1,0.448-1,1s0.447,1,1,1H98c0.553,0,1-0.448,1-1S98.553,28,98,28z" fill="#323638"/><circle cx="50.447" cy="59" fill="#323638" r="2"/><circle cx="40.047" cy="59" fill="#323638" r="2"/><circle cx="29.647" cy="59" fill="#323638" r="2"/><path d="M99,59c0-0.552-0.447-1-1-1H83.991c1.096,0.586,2.146,1.257,3.148,2H98C98.553,60,99,59.552,99,59z" fill="#323638"/><circle cx="29.647" cy="90" fill="#323638" r="2"/><path d="M109,108H65v-3h-2v3H19c-0.553,0-1,0.448-1,1s0.447,1,1,1h90c0.553,0,1-0.448,1-1S109.553,108,109,108z" fill="#323638"/><path d="M65,40h39c3.309,0,6-2.691,6-6V24c0-3.309-2.691-6-6-6H24c-3.309,0-6,2.691-6,6v10c0,3.309,2.691,6,6,6h39   v7.75c0,0.089,0.029,0.168,0.051,0.25H24c-3.309,0-6,2.691-6,6v10c0,3.309,2.691,6,6,6h24.678c0.307-0.685,0.646-1.351,1.008-2H24   c-2.206,0-4-1.794-4-4V54c0-2.206,1.794-4,4-4h80c2.206,0,4,1.794,4,4v10c0,1.845-1.262,3.387-2.964,3.847   c0.645,0.436,1.257,0.912,1.845,1.414C108.738,68.24,110,66.265,110,64V54c0-3.309-2.691-6-6-6H64.95   c0.022-0.082,0.05-0.161,0.05-0.25V40z M24,38c-2.206,0-4-1.794-4-4V24c0-2.206,1.794-4,4-4h80c2.206,0,4,1.794,4,4v10   c0,2.206-1.794,4-4,4H24z" fill="#323638"/><path d="M24,101h15.192c-0.714-0.612-1.381-1.277-1.984-2H24c-2.206,0-4-1.794-4-4V85c0-2.206,1.794-4,4-4h11.109   c0.36-0.7,0.774-1.365,1.231-2H24c-3.309,0-6,2.691-6,6v10C18,98.309,20.691,101,24,101z" fill="#323638"/><path d="M92.902,68.191c-0.948,0-1.938,0.104-3.073,0.327C85.803,62.544,79.175,59,71.959,59   c-10.375,0-19.102,7.197-21.118,17.255c-0.276-0.039-0.567-0.068-0.868-0.068c-7.08,0-12.626,5.34-12.626,12.157   c0,6.979,5.664,12.656,12.626,12.656h42.929C102.649,101,110,94.021,110,84.765C110,75.471,102.49,68.191,92.902,68.191z    M92.902,99H49.973c-5.859,0-10.626-4.78-10.626-10.656c0-5.695,4.667-10.157,10.626-10.157c0.332,0,0.686,0.06,1.06,0.124   c0.16,0.027,0.319,0.054,0.478,0.077c0.542,0.078,1.048-0.295,1.131-0.838C54.117,67.96,62.241,61,71.959,61   c6.757,0,12.948,3.428,16.56,9.17c0.226,0.358,0.652,0.537,1.066,0.443c1.282-0.288,2.336-0.422,3.317-0.422   c8.466,0,15.098,6.401,15.098,14.573C108,92.88,101.509,99,92.902,99z" fill="#323638"/></g></svg>