<?xml version="1.0" ?><!DOCTYPE svg  PUBLIC '-//W3C//DTD SVG 1.1//EN'  'http://www.w3.org/Graphics/SVG/1.1/DTD/svg11.dtd'>
<?xml-stylesheet type="text/css" href="../css/svg.css"?>
<svg enable-background="new 0 0 128 128" id="Слой_1" version="1.1" viewBox="0 0 128 128" xml:space="preserve" xmlns="http://www.w3.org/2000/svg" xmlns:xlink="http://www.w3.org/1999/xlink"><g><path d="M109.29,100.117l-17.11-17.35c-1.19-1.206-3.276-1.219-4.482-0.031l-5.406,5.333   c-1.244,1.228-1.258,3.239-0.022,4.49l17.32,17.151c0.195,0.193,0.449,0.29,0.704,0.29c0.254,0,0.508-0.096,0.702-0.289   l8.285-8.181C109.674,101.143,109.678,100.51,109.29,100.117z M100.294,107.594L83.685,91.146c-0.453-0.458-0.448-1.2,0.011-1.653   l5.406-5.332c0.22-0.217,0.512-0.337,0.821-0.337c0.315,0,0.611,0.124,0.833,0.348l16.408,16.638L100.294,107.594z" fill="#313638"/><path d="M94.188,55.882c0-2.908-0.34-5.737-0.964-8.459c-0.505,0.699-1.036,1.398-1.612,2.098   c0.371,2.066,0.576,4.19,0.576,6.361c0,19.786-16.097,35.883-35.883,35.883c-7.053,0-13.632-2.054-19.185-5.583l6.353-9.07   c0.316-0.452,0.207-1.076-0.246-1.393c-0.45-0.318-1.074-0.208-1.393,0.245l-6.373,9.098c-2.426-1.738-4.628-3.767-6.552-6.041   l9.133-6.716c0.444-0.327,0.54-0.953,0.213-1.398c-0.328-0.444-0.952-0.543-1.398-0.213l-9.201,6.766   c-4.538-6.01-7.234-13.484-7.234-21.578C20.422,36.097,36.519,20,56.305,20c3.347,0,6.584,0.471,9.66,1.332   c0.683-0.525,1.364-1.017,2.041-1.474C64.318,18.657,60.387,18,56.305,18c-20.889,0-37.883,16.994-37.883,37.882   c0,8.884,3.082,17.056,8.221,23.523c0.007,0.01,0.007,0.021,0.014,0.03c0.008,0.011,0.021,0.014,0.029,0.024   c6.947,8.709,17.638,14.305,29.619,14.305C77.193,93.765,94.188,76.771,94.188,55.882z" fill="#313638"/><path d="M60.241,32.694C56.574,37.33,53.2,42.18,49.151,48.44l-1.095-0.484c-1.785-0.791-3.9-0.485-5.39,0.776   L25.458,63.297c-0.365,0.31-0.46,0.835-0.226,1.252c0.181,0.323,0.519,0.511,0.872,0.511c0.104,0,0.211-0.017,0.315-0.051   l9.825-3.262c0.523-0.174,0.808-0.74,0.634-1.264c-0.175-0.525-0.742-0.809-1.265-0.634l-4.915,1.632l13.26-11.223   c0.907-0.769,2.199-0.954,3.288-0.473l0.809,0.358c-2.891,4.513-6.143,9.744-10.087,16.109c-0.291,0.47-0.146,1.086,0.323,1.377   c0.47,0.292,1.086,0.146,1.376-0.323c10.105-16.31,15.68-25.201,22.142-33.37c14.309-18.09,29.022-13.633,31.193-12.837   c0.777,2.218,5.055,17.086-12.784,31.149c-7.936,6.255-16.279,11.562-33.428,22.177c-0.47,0.291-0.614,0.907-0.324,1.376   c0.189,0.306,0.517,0.474,0.852,0.474c0.18,0,0.361-0.048,0.525-0.15c6.467-4.004,11.687-7.255,16.11-10.09l0.358,0.809   c0.481,1.088,0.295,2.378-0.474,3.286L52.61,83.383l1.633-4.913c0.174-0.524-0.109-1.09-0.634-1.265   c-0.522-0.173-1.09,0.109-1.265,0.634l-3.264,9.822c-0.15,0.455,0.042,0.953,0.46,1.188c0.153,0.086,0.322,0.128,0.489,0.128   c0.286,0,0.567-0.123,0.763-0.354l14.57-17.202c1.262-1.488,1.566-3.604,0.777-5.388l-0.485-1.097   c6.456-4.178,11.194-7.488,15.801-11.12C100.74,38.616,95.565,22.262,94.755,20.11c-0.031-0.131-0.091-0.255-0.172-0.363   c-0.136-0.193-0.337-0.329-0.564-0.388C91.947,18.529,75.798,13.026,60.241,32.694z" fill="#313638"/><path d="M80.878,42.115c1.245-1.245,1.943-2.891,1.965-4.633c0.022-1.752-0.641-3.392-1.867-4.617   c-1.204-1.205-2.815-1.868-4.537-1.868c-1.773,0-3.448,0.698-4.716,1.965c-1.245,1.245-1.943,2.891-1.965,4.633   c-0.022,1.752,0.641,3.392,1.867,4.617c1.204,1.204,2.815,1.867,4.536,1.867C77.936,44.081,79.61,43.383,80.878,42.115z    M71.758,37.621c0.015-1.218,0.505-2.37,1.379-3.244c0.89-0.89,2.062-1.379,3.302-1.379c1.188,0,2.296,0.455,3.123,1.282   c0.842,0.841,1.297,1.97,1.281,3.178c-0.015,1.217-0.505,2.37-1.379,3.244c-0.89,0.89-2.062,1.379-3.303,1.379   c-1.187,0-2.295-0.455-3.122-1.281C72.197,39.958,71.742,38.829,71.758,37.621z" fill="#313638"/><path d="M57.6,56.019c-0.394-0.385-1.028-0.377-1.414,0.018L37.368,75.337c-0.386,0.396-0.378,1.029,0.018,1.414   c0.194,0.19,0.446,0.284,0.698,0.284c0.26,0,0.521-0.101,0.716-0.302l18.817-19.301C58.003,57.037,57.995,56.404,57.6,56.019z" fill="#313638"/></g></svg>