<?xml version="1.0" ?><!DOCTYPE svg  PUBLIC '-//W3C//DTD SVG 1.1//EN'  'http://www.w3.org/Graphics/SVG/1.1/DTD/svg11.dtd'>
<?xml-stylesheet type="text/css" href="../css/svg.css"?>
<svg enable-background="new 0 0 128 128" id="Слой_1" version="1.1" viewBox="0 0 128 128" xml:space="preserve" xmlns="http://www.w3.org/2000/svg" xmlns:xlink="http://www.w3.org/1999/xlink"><g><path d="M64.167,18.002C64.165,18.002,64.001,18,64,18c-9.52,0-18.653,2.882-26.415,8.335  C25.321,34.952,18,49.032,18,64c0,25.364,20.636,46,46,46l0.167-0.002C89.439,109.909,110,89.274,110,64  C110,38.728,89.439,18.093,64.167,18.002z M89.889,63c-0.018-8.516-1.439-16.852-4.175-24.742c3.613-1.078,7.154-2.429,10.61-4.055  c7.031,7.62,11.414,17.715,11.664,28.798L89.889,63z M73.621,106.862c-0.016,0.021-0.018,0.047-0.032,0.069  c-2.775,0.621-5.646,0.976-8.589,1.042V89.204c5.904,0.077,11.682,0.842,17.295,2.271C80.052,96.883,77.153,102.043,73.621,106.862z   M84.246,91.979c3.466,0.986,6.861,2.244,10.182,3.745c-4.985,4.783-11.085,8.407-17.869,10.435  C79.643,101.677,82.214,96.931,84.246,91.979z M55.794,107.062c-3.662-4.962-6.644-10.289-8.934-15.877  c5.25-1.246,10.641-1.909,16.14-1.981v18.771c-2.428-0.055-4.808-0.304-7.124-0.738C55.848,107.178,55.834,107.116,55.794,107.062z   M53.025,106.611c-7.425-1.914-14.094-5.725-19.465-10.88c3.69-1.669,7.475-3.022,11.343-4.054  C47.022,96.904,49.738,101.906,53.025,106.611z M54.515,21.03c2.768-0.607,5.606-0.947,8.485-1.011v19.358  c-5.777-0.075-11.433-0.809-16.93-2.178c2.117-5.648,4.924-11.05,8.412-16.091C54.498,21.083,54.501,21.055,54.515,21.03z   M74.98,21.393c3.338,4.871,6.044,10.075,8.109,15.511C77.229,38.466,71.184,39.296,65,39.377V20.026  C68.436,20.104,71.779,20.565,74.98,21.393z M63,41.391V63l-21.621,0c0.018-8.221,1.382-16.265,3.999-23.886  C51.097,40.555,56.986,41.314,63,41.391z M63,65v22.203c-5.755,0.073-11.394,0.781-16.883,2.106  C43.204,81.6,41.615,73.415,41.412,65L63,65z M65,87.204V65l22.857,0c-0.206,8.518-1.839,16.802-4.823,24.598  C77.184,88.088,71.158,87.282,65,87.204z M65,63V41.391c6.424-0.081,12.705-0.948,18.789-2.586  c2.688,7.713,4.082,15.867,4.101,24.196L65,63z M94.84,32.668c-3.203,1.472-6.477,2.708-9.817,3.699  c-1.846-4.896-4.198-9.61-7.052-14.073C84.372,24.448,90.127,28.028,94.84,32.668z M38.735,27.972  c3.974-2.792,8.328-4.873,12.91-6.21c-3.075,4.721-5.59,9.727-7.526,14.939c-3.744-1.044-7.407-2.399-10.982-4.043  C34.86,30.96,36.724,29.385,38.735,27.972z M31.661,34.196c3.829,1.803,7.761,3.272,11.781,4.401  C40.783,46.386,39.397,54.604,39.379,63l-19.367,0C20.257,52.226,24.475,42.005,31.661,34.196z M39.412,65  c0.201,8.581,1.802,16.931,4.748,24.801c-4.134,1.117-8.178,2.582-12.112,4.408C24.8,86.547,20.264,76.294,20.011,65L39.412,65z   M95.94,94.202c-3.568-1.655-7.226-3.016-10.959-4.089C88.003,82.15,89.652,73.693,89.857,65l18.131,0  C107.735,76.283,103.193,86.537,95.94,94.202z" fill="#323638"/></g></svg>