<?xml version="1.0" ?><!DOCTYPE svg  PUBLIC '-//W3C//DTD SVG 1.1//EN'  'http://www.w3.org/Graphics/SVG/1.1/DTD/svg11.dtd'>
<?xml-stylesheet type="text/css" href="../css/svg.css"?>
<svg enable-background="new 0 0 128 128" id="Слой_1" version="1.1" viewBox="0 0 128 128" xml:space="preserve" xmlns="http://www.w3.org/2000/svg" xmlns:xlink="http://www.w3.org/1999/xlink"><g><path d="M64,30c3.309,0,6-2.691,6-6s-2.691-6-6-6s-6,2.691-6,6S60.691,30,64,30z M64,20c2.206,0,4,1.794,4,4   s-1.794,4-4,4s-4-1.794-4-4S61.794,20,64,20z" fill="#323638"/><path d="M98.167,50c3.309,0,6-2.691,6-6s-2.691-6-6-6s-6,2.691-6,6S94.858,50,98.167,50z M98.167,40   c2.206,0,4,1.794,4,4s-1.794,4-4,4s-4-1.794-4-4S95.961,40,98.167,40z" fill="#323638"/><path d="M98.167,77.667c-3.309,0-6,2.691-6,6s2.691,6,6,6s6-2.691,6-6S101.475,77.667,98.167,77.667z    M98.167,87.667c-2.206,0-4-1.794-4-4s1.794-4,4-4s4,1.794,4,4S100.372,87.667,98.167,87.667z" fill="#323638"/><path d="M64,97.667c-3.309,0-6,2.691-6,6s2.691,6,6,6s6-2.691,6-6S67.309,97.667,64,97.667z M64,107.667   c-2.206,0-4-1.794-4-4s1.794-4,4-4s4,1.794,4,4S66.206,107.667,64,107.667z" fill="#323638"/><path d="M30,77.667c-3.309,0-6,2.691-6,6s2.691,6,6,6s6-2.691,6-6S33.309,77.667,30,77.667z M30,87.667   c-2.206,0-4-1.794-4-4s1.794-4,4-4s4,1.794,4,4S32.206,87.667,30,87.667z" fill="#323638"/><path d="M30,38c-3.309,0-6,2.691-6,6s2.691,6,6,6s6-2.691,6-6S33.309,38,30,38z M30,48c-2.206,0-4-1.794-4-4   s1.794-4,4-4s4,1.794,4,4S32.206,48,30,48z" fill="#323638"/><path d="M90.14,38.061l-17.047-9.924c-0.279,0.611-0.618,1.188-1.01,1.726l17.031,9.915   C89.399,39.17,89.743,38.596,90.14,38.061z" fill="#323638"/><path d="M55.917,29.863c-0.391-0.538-0.731-1.115-1.01-1.726l-16.93,9.857c0.401,0.531,0.749,1.103,1.04,1.709   L55.917,29.863z" fill="#323638"/><path d="M97.353,73.708c0.269-0.022,0.539-0.041,0.814-0.041c0.402,0,0.797,0.031,1.186,0.077V53.923   C98.963,53.969,98.569,54,98.167,54c-0.275,0-0.545-0.019-0.814-0.041V73.708z" fill="#323638"/><path d="M88.989,79.705c0.267-0.617,0.597-1.2,0.977-1.745l-12.544-7.303c-0.299,0.599-0.622,1.184-0.995,1.735   L88.989,79.705z" fill="#323638"/><path d="M38.15,77.893c0.385,0.542,0.719,1.123,0.991,1.737l12.432-7.238c-0.373-0.551-0.697-1.135-0.995-1.735   L38.15,77.893z" fill="#323638"/><path d="M89.114,48.221l-12.688,7.387c0.373,0.551,0.697,1.135,0.995,1.735l12.718-7.404   C89.743,49.404,89.399,48.83,89.114,48.221z" fill="#323638"/><path d="M51.573,55.608l-12.558-7.311c-0.29,0.606-0.638,1.178-1.04,1.709l12.602,7.337   C50.877,56.744,51.2,56.159,51.573,55.608z" fill="#323638"/><path d="M37.803,89.905l16.98,9.885c0.262-0.62,0.585-1.206,0.961-1.755L38.89,88.224   C38.583,88.822,38.219,89.385,37.803,89.905z" fill="#323638"/><path d="M30.647,73.699V53.967C30.432,53.981,30.218,54,30,54c-0.46,0-0.909-0.042-1.353-0.103v19.872   c0.444-0.06,0.893-0.103,1.353-0.103C30.218,73.667,30.432,73.686,30.647,73.699z" fill="#323638"/><path d="M72.257,98.036c0.375,0.549,0.699,1.135,0.961,1.755l17.096-9.953c-0.412-0.524-0.771-1.089-1.074-1.689   L72.257,98.036z" fill="#323638"/><path d="M64,55.5c-4.687,0-8.5,3.813-8.5,8.5s3.813,8.5,8.5,8.5s8.5-3.813,8.5-8.5S68.687,55.5,64,55.5z M64,70.5   c-3.584,0-6.5-2.916-6.5-6.5s2.916-6.5,6.5-6.5s6.5,2.916,6.5,6.5S67.584,70.5,64,70.5z" fill="#323638"/></g></svg>