<?xml version="1.0" ?><!DOCTYPE svg  PUBLIC '-//W3C//DTD SVG 1.1//EN'  'http://www.w3.org/Graphics/SVG/1.1/DTD/svg11.dtd'>
<?xml-stylesheet type="text/css" href="../css/svg.css"?>
<svg enable-background="new 0 0 128 128" id="Слой_1" version="1.1" viewBox="0 0 128 128" xml:space="preserve" xmlns="http://www.w3.org/2000/svg" xmlns:xlink="http://www.w3.org/1999/xlink"><g><path d="M112.5,39V24c0-3.309-2.691-6-6-6h-15c-3.309,0-6,2.691-6,6v3.683C79.666,24.628,73.132,23,66.5,23  c-17.483,0-32.981,11.034-38.718,27.5H21.5c-3.309,0-6,2.691-6,6v15c0,3.309,2.691,6,6,6h6.283C33.521,93.972,49,105,66.5,105  c6.631,0,13.165-1.628,19-4.684V104c0,3.309,2.691,6,6,6h15c3.309,0,6-2.691,6-6V89c0-3.309-2.691-6-6-6h-3.684  c3.055-5.834,4.684-12.368,4.684-19c0-6.635-1.628-13.164-4.684-19h3.684C109.809,45,112.5,42.309,112.5,39z M87.5,24  c0-2.206,1.794-4,4-4h15c2.206,0,4,1.794,4,4v15c0,2.206-1.794,4-4,4h-15c-2.206,0-4-1.794-4-4V24z M17.5,71.5v-15  c0-2.206,1.794-4,4-4h15c2.206,0,4,1.794,4,4v15c0,2.206-1.794,4-4,4h-15C19.294,75.5,17.5,73.706,17.5,71.5z M110.5,89v15  c0,2.206-1.794,4-4,4h-15c-2.206,0-4-1.794-4-4V89c0-2.206,1.794-4,4-4h15C108.706,85,110.5,86.794,110.5,89z M105.5,64  c0,6.661-1.711,13.224-4.94,19H91.5c-3.309,0-6,2.691-6,6v9.06c-5.777,3.229-12.34,4.94-19,4.94  c-16.412,0-30.959-10.197-36.596-25.5H36.5c3.309,0,6-2.691,6-6v-15c0-3.309-2.691-6-6-6h-6.594C35.543,35.202,50.104,25,66.5,25  c6.661,0,13.223,1.711,19,4.941V39c0,3.309,2.691,6,6,6h9.054C103.784,50.779,105.5,57.336,105.5,64z" fill="#323638"/></g></svg>