<?xml version="1.0" ?><!DOCTYPE svg  PUBLIC '-//W3C//DTD SVG 1.1//EN'  'http://www.w3.org/Graphics/SVG/1.1/DTD/svg11.dtd'>
<?xml-stylesheet type="text/css" href="../css/svg.css"?>
<svg enable-background="new 0 0 128 128" id="Слой_1" version="1.1" viewBox="0 0 128 128" xml:space="preserve" xmlns="http://www.w3.org/2000/svg" xmlns:xlink="http://www.w3.org/1999/xlink"><g><path d="M55.633,60.43l1.991,4.306c0.128,0.276,0.292,0.537,0.488,0.777c2.87,3.484,3.839,3.816,5.229,3.722   c0.09-0.007,0.182-0.014,0.279-0.014h0.686c0.098,0,0.189,0.007,0.279,0.014c0.123,0.009,0.243,0.014,0.361,0.014   c1.216,0,2.253-0.56,4.869-3.735c0.193-0.235,0.357-0.497,0.487-0.778l2.011-4.349c0.582-0.041,1.171-0.295,1.695-0.745   c0.688-0.59,1.223-1.459,1.546-2.511c0.506-1.646,0.387-3.582-0.499-4.63c0.145-1.613,0.3-6.514-2.724-9.665   c-2.031-2.116-5.03-2.979-8.9-2.561c-0.146,0.013-3.598,0.334-5.556,1.568c-0.122,0.078-0.259,0.158-0.404,0.245   c-1.79,1.066-5.446,3.269-4.435,10.358c-0.391,0.401-0.681,0.957-0.817,1.677c-0.179,0.945-0.099,2.036,0.227,3.071   C53.033,59.063,54.309,60.305,55.633,60.43z M58.496,43.807c0.162-0.097,0.313-0.187,0.448-0.272   c1.284-0.811,3.804-1.189,4.685-1.27c3.232-0.349,5.675,0.308,7.255,1.949c2.31,2.4,2.3,6.338,2.196,7.877   c-0.109,0.11-0.201,0.239-0.25,0.397c-0.16,0.521,0.127,1.068,0.641,1.239c0.01,0.007,0.019,0.014,0.03,0.02   c0.223,0.13,0.611,1.272,0.143,2.794c-0.209,0.681-0.541,1.242-0.936,1.581c-0.244,0.21-0.482,0.308-0.642,0.253   c-0.491-0.189-1.043,0.037-1.264,0.515l-2.313,5.003c-0.058,0.125-0.133,0.245-0.217,0.348c-2.524,3.065-3.038,3.033-3.546,2.998   c-0.135-0.01-0.272-0.019-0.42-0.019h-0.686c-0.147,0-0.285,0.009-0.42,0.019c-0.505,0.037-1.021,0.067-3.543-2.995   c-0.087-0.105-0.162-0.227-0.22-0.35l-2.283-4.937c-0.207-0.448-0.746-0.685-1.217-0.53c-0.326,0.096-1.149-0.449-1.583-1.831   c-0.471-1.502-0.102-2.644,0.147-2.803c0.004-0.001,0.007-0.002,0.01-0.003c0.521-0.136,0.828-0.657,0.71-1.184   c-0.034-0.152-0.109-0.28-0.201-0.394C54.167,46.405,56.759,44.842,58.496,43.807z" fill="#323638"/><path d="M36.243,58.499c0.378,0.321,0.8,0.508,1.219,0.549l1.491,3.225c0.098,0.212,0.222,0.41,0.368,0.586   c2.156,2.619,2.885,2.862,3.931,2.796c0.067-0.005,0.135-0.01,0.208-0.01h0.515c0.073,0,0.141,0.005,0.208,0.01   c0.093,0.006,0.184,0.01,0.273,0.01c0.915,0,1.694-0.421,3.659-2.806c0.146-0.177,0.27-0.375,0.368-0.587l1.505-3.255   c0.049-0.003,0.098-0.016,0.147-0.024c-0.135-0.308-0.26-0.626-0.365-0.96c-0.06-0.192-0.105-0.384-0.153-0.575   c-0.32-0.038-0.639,0.118-0.78,0.424l-1.735,3.752c-0.044,0.094-0.098,0.181-0.161,0.258c-1.893,2.297-2.271,2.266-2.65,2.245   c-0.101-0.007-0.204-0.014-0.315-0.014h-0.515c-0.111,0-0.214,0.007-0.315,0.014c-0.378,0.021-0.759,0.052-2.65-2.246   c-0.063-0.077-0.117-0.163-0.161-0.257l-1.712-3.703c-0.086-0.187-0.244-0.331-0.438-0.398c-0.159-0.057-0.332-0.057-0.491-0.005   c-0.115,0.031-0.291-0.043-0.465-0.19c-0.296-0.251-0.546-0.669-0.705-1.177c-0.355-1.132-0.063-2.006,0.033-2.072   c0.021-0.004,0.065-0.013,0.085-0.019c0.394-0.107,0.621-0.503,0.531-0.901c-0.026-0.113-0.081-0.209-0.149-0.294   c-0.639-4.348,1.301-5.518,2.602-6.292c0.122-0.073,0.236-0.14,0.337-0.204c0.96-0.606,2.848-0.891,3.508-0.95   c2.419-0.261,4.249,0.23,5.432,1.459c0.564,0.586,0.94,1.295,1.193,2.025c0.07-0.901,0.22-1.713,0.425-2.455   c-0.158-0.214-0.327-0.422-0.516-0.619c-1.526-1.59-3.781-2.236-6.684-1.924c-0.109,0.01-2.702,0.25-4.171,1.178   c-0.091,0.058-0.194,0.119-0.303,0.184c-1.344,0.801-4.091,2.455-3.332,7.779c-0.292,0.305-0.512,0.724-0.612,1.255   c-0.135,0.711-0.074,1.531,0.17,2.309C35.318,57.406,35.724,58.057,36.243,58.499z" fill="#323638"/><path d="M80.132,46.582c0.122-0.072,0.236-0.141,0.337-0.204c0.961-0.606,2.848-0.891,3.508-0.95   c2.418-0.261,4.249,0.23,5.432,1.459c1.727,1.794,1.722,4.737,1.644,5.894c-0.082,0.084-0.152,0.181-0.189,0.301   c-0.122,0.396,0.096,0.812,0.487,0.942c0.007,0.005,0.014,0.01,0.021,0.015c0.163,0.1,0.448,0.963,0.104,2.084   c-0.32,1.04-0.943,1.445-1.169,1.369c-0.374-0.143-0.794,0.028-0.961,0.392l-1.735,3.752c-0.042,0.091-0.099,0.181-0.163,0.258   c-1.895,2.302-2.277,2.266-2.65,2.245c-0.101-0.007-0.204-0.014-0.315-0.014h-0.514c-0.111,0-0.214,0.007-0.315,0.014   c-0.373,0.019-0.754,0.056-2.65-2.246c-0.063-0.077-0.118-0.164-0.161-0.257l-1.713-3.703c-0.104-0.226-0.312-0.386-0.557-0.429   c-0.072-0.013-0.145-0.012-0.218-0.004c-0.039,0.152-0.072,0.303-0.119,0.456c-0.115,0.374-0.256,0.726-0.408,1.068   c0.048,0.009,0.095,0.022,0.143,0.027l1.491,3.222c0.097,0.212,0.221,0.41,0.369,0.589c2.156,2.619,2.887,2.862,3.932,2.796   c0.067-0.005,0.135-0.01,0.208-0.01h0.514c0.073,0,0.141,0.005,0.208,0.01c0.093,0.006,0.184,0.01,0.273,0.01   c0.915,0,1.695-0.421,3.659-2.806c0.146-0.178,0.271-0.375,0.369-0.587l1.505-3.253c1.015-0.074,1.994-1.02,2.435-2.451   c0.379-1.236,0.289-2.69-0.374-3.48c0.109-1.216,0.221-4.889-2.047-7.251c-1.526-1.59-3.778-2.236-6.684-1.924   c-0.109,0.01-2.701,0.25-4.171,1.178c-0.092,0.059-0.194,0.119-0.303,0.184c-0.523,0.312-1.259,0.752-1.919,1.485   c0.182,0.757,0.305,1.497,0.381,2.193C78.367,47.64,79.361,47.041,80.132,46.582z" fill="#323638"/><path d="M98.981,72.828c0.004-0.056,0.014-0.11,0.008-0.166c-0.001-0.013,0.004-0.024,0.002-0.037   c-0.071-0.47-0.156-0.969-0.306-1.465c-0.783-2.264-2.957-2.792-3.365-2.872l-5.868-1.8c-0.312-0.095-0.653,0.019-0.843,0.287   l-4.351,6.117l-0.013,0.019l-0.104-0.148l-4.215-5.985c-0.19-0.269-0.532-0.384-0.845-0.289l-5.631,1.728l2.595,0.796l2.955-0.906   l1.618,2.297l3.003,4.264c0.142,0.201,0.373,0.322,0.62,0.323c0,0,0.001,0,0.001,0c0.246,0,0.477-0.119,0.62-0.32l0.333-0.469   l4.336-6.096l5.386,1.652c0.034,0.01,0.069,0.019,0.104,0.024c0.017,0.003,1.676,0.282,2.218,1.849   c0.034,0.112,0.058,0.235,0.085,0.355l-12.797,6.472c-0.317,0.16-0.642,0.298-0.962,0.451c-0.003-0.035-0.006-0.063-0.01-0.099   c-0.095-0.954-0.178-1.72-0.327-2.211c-1.041-3.015-3.938-3.716-4.477-3.821l-7.826-2.399c-0.411-0.126-0.858,0.025-1.108,0.377   l-5.829,8.197l-5.771-8.194c-0.249-0.354-0.699-0.506-1.11-0.38l-7.826,2.399c-0.539,0.105-3.436,0.81-4.487,3.856   c-0.136,0.447-0.229,1.205-0.334,2.145c-0.178-0.086-0.361-0.161-0.538-0.25l-13.207-6.623c0.021-0.081,0.041-0.173,0.063-0.246   c0.543-1.573,2.161-1.866,2.226-1.878c0.035-0.005,0.07-0.013,0.104-0.024l5.383-1.651l4.322,6.136l0.3,0.426   c0.142,0.201,0.373,0.322,0.62,0.323c0,0,0.001,0,0.001,0c0.246,0,0.477-0.119,0.62-0.32l3.024-4.254l1.643-2.311l2.961,0.908   l2.595-0.796l-5.635-1.729c-0.312-0.095-0.653,0.019-0.843,0.287l-4.363,6.136l-4.32-6.134c-0.189-0.269-0.532-0.384-0.845-0.289   l-5.869,1.8c-0.408,0.08-2.583,0.61-3.373,2.899c-0.13,0.427-0.247,0.951-0.319,1.437c-0.042,0.273,0.077,0.526,0.276,0.69   c0.088,0.11,0.195,0.207,0.33,0.274l13.408,6.724c6.619,3.319,13.874,4.978,21.129,4.978c7.31,0,14.619-1.684,21.276-5.05   l13.023-6.586c0.287-0.145,0.458-0.413,0.515-0.706C98.977,72.909,98.976,72.868,98.981,72.828z M46.366,79.66   c0.021-0.162,0.043-0.354,0.069-0.586c0.064-0.576,0.172-1.541,0.258-1.826c0.728-2.105,2.894-2.498,2.979-2.514   c0.046-0.007,0.092-0.018,0.137-0.031l7.188-2.203l6.168,8.757c0.187,0.265,0.49,0.423,0.815,0.424c0,0,0.001,0,0.002,0   c0.323,0,0.627-0.156,0.815-0.421l6.229-8.761l7.191,2.204c0.041,0.013,0.089,0.023,0.131,0.03   c0.092,0.017,2.259,0.409,2.975,2.479c0.092,0.304,0.185,1.235,0.239,1.792c0.032,0.317,0.059,0.583,0.084,0.767   C70.401,84.488,57.589,84.461,46.366,79.66z" fill="#323638"/><path d="M64,18c-25.364,0-46,20.636-46,46s20.636,46,46,46s46-20.636,46-46S89.364,18,64,18z M65.237,107.969   l-0.045-9.099c-0.003-0.551-0.45-0.995-1-0.995c-0.002,0-0.003,0-0.005,0c-0.553,0.003-0.998,0.453-0.995,1.005l0.045,9.102   c-23.594-0.405-42.713-19.465-43.213-43.037l9.099,0.015c0.001,0,0.001,0,0.002,0c0.552,0,0.999-0.446,1-0.998   c0.001-0.553-0.446-1.001-0.998-1.002l-9.1-0.015c0.557-23.435,19.516-42.382,42.956-42.918v9.099c0,0.553,0.447,1,1,1s1-0.447,1-1   v-9.1c23.456,0.518,42.434,19.472,42.991,42.918l-9.099,0.008c-0.552,0-1,0.448-0.999,1.001c0.001,0.552,0.448,0.999,1,0.999h0.001   l9.1-0.008C107.479,88.357,88.613,107.318,65.237,107.969z" fill="#323638"/></g></svg>