<?xml version="1.0" ?><!DOCTYPE svg  PUBLIC '-//W3C//DTD SVG 1.1//EN'  'http://www.w3.org/Graphics/SVG/1.1/DTD/svg11.dtd'>
<?xml-stylesheet type="text/css" href="../css/svg.css"?>
<svg enable-background="new 0 0 128 128" id="Слой_1" version="1.1" viewBox="0 0 128 128" xml:space="preserve" xmlns="http://www.w3.org/2000/svg" xmlns:xlink="http://www.w3.org/1999/xlink"><g><path d="M48.795,41.054c0.414,1.321,1.115,2.45,1.976,3.18c0.672,0.57,1.425,0.882,2.158,0.909l2.712,5.868   c0.161,0.347,0.365,0.673,0.609,0.969c3.397,4.124,4.714,4.844,6.243,4.844c0.144,0,0.291-0.006,0.441-0.017   c0.125-0.008,0.253-0.018,0.39-0.018h0.909c0.137,0,0.265,0.01,0.39,0.018c1.736,0.128,2.965-0.312,6.685-4.827   c0.243-0.295,0.447-0.62,0.607-0.967l2.739-5.924c1.729-0.011,3.442-1.63,4.208-4.119c0.662-2.154,0.509-4.705-0.683-5.975   c0.191-1.987,0.471-8.524-3.521-12.682c-2.626-2.735-6.521-3.85-11.558-3.304c-0.19,0.017-4.698,0.434-7.233,2.035   c-0.164,0.104-0.345,0.212-0.541,0.328c-2.327,1.386-7.092,4.251-5.724,13.549C48.274,36.135,48.091,38.811,48.795,41.054z    M56.382,23.144c0.212-0.127,0.41-0.245,0.588-0.356c2.111-1.334,6.273-1.721,6.334-1.727c4.385-0.473,7.701,0.427,9.862,2.673   c3.198,3.324,3.13,8.787,2.982,10.786c-0.148,0.124-0.274,0.275-0.336,0.472c-0.167,0.545,0.138,1.122,0.683,1.289   c0.531,0.163,1.05,1.956,0.397,4.082c-0.562,1.823-1.747,2.851-2.487,2.618c-0.503-0.19-1.067,0.044-1.294,0.534l-3.068,6.632   c-0.086,0.185-0.198,0.366-0.327,0.524c-3.449,4.187-4.178,4.143-4.948,4.08c-0.171-0.011-0.346-0.023-0.535-0.023h-0.909   c-0.188,0-0.363,0.012-0.535,0.023c-0.77,0.061-1.5,0.106-4.947-4.079c-0.13-0.158-0.243-0.339-0.329-0.525l-3.025-6.543   c-0.212-0.46-0.76-0.704-1.251-0.549c-0.31,0.096-0.724-0.046-1.132-0.393c-0.568-0.481-1.044-1.271-1.343-2.224   c-0.665-2.123-0.155-3.92,0.302-4.067c0.018-0.003,0.071-0.014,0.089-0.018c0.544-0.127,0.87-0.661,0.757-1.209   c-0.039-0.185-0.139-0.336-0.262-0.467C50.451,26.7,54.145,24.475,56.382,23.144z" fill="#313638"/><path d="M38.105,69.747c0.007,0.065,0.009,0.129,0.028,0.191c0.018,0.058,0.05,0.109,0.078,0.164   c0.034,0.066,0.065,0.13,0.112,0.187c0.012,0.014,0.015,0.032,0.027,0.045c6.551,7.167,15.597,11.115,25.47,11.115   c9.856,0,18.905-3.946,25.481-11.114c0.013-0.014,0.017-0.033,0.029-0.048c0.044-0.054,0.074-0.115,0.107-0.177   c0.031-0.058,0.064-0.113,0.083-0.175c0.017-0.057,0.019-0.117,0.027-0.178c0.009-0.074,0.018-0.146,0.011-0.22   c-0.002-0.018,0.005-0.035,0.003-0.053c-0.125-0.826-0.275-1.698-0.529-2.531c-1.343-3.885-5.102-4.755-5.726-4.874l-10.388-3.185   c-0.425-0.129-0.885,0.025-1.143,0.389l-7.968,11.205l-7.889-11.202c-0.257-0.364-0.721-0.521-1.145-0.392l-10.387,3.185   c-0.625,0.119-4.385,0.991-5.739,4.91c-0.226,0.744-0.428,1.653-0.556,2.496c-0.003,0.019,0.005,0.037,0.003,0.056   C38.088,69.61,38.098,69.677,38.105,69.747z M40.609,67.625c1.023-2.963,4.057-3.504,4.182-3.525   c0.047-0.007,0.095-0.018,0.141-0.032l9.73-2.984l8.298,11.782c0.192,0.273,0.505,0.436,0.841,0.437c0,0,0.001,0,0.002,0   c0.333,0,0.646-0.161,0.841-0.434l8.381-11.786l9.735,2.985c0.046,0.014,0.094,0.025,0.141,0.032   c0.032,0.005,3.147,0.53,4.17,3.488c0.169,0.555,0.289,1.198,0.372,1.703c-6.151,6.509-14.517,10.095-23.622,10.095   c-9.119,0-17.479-3.583-23.605-10.089C40.324,68.703,40.463,68.107,40.609,67.625z" fill="#313638"/><path d="M27.036,42.87c0.501,0.425,1.061,0.673,1.616,0.728l1.977,4.274c0.13,0.282,0.294,0.544,0.488,0.777   c2.858,3.471,3.824,3.794,5.211,3.706c0.089-0.007,0.179-0.014,0.276-0.014h0.682c0.097,0,0.187,0.007,0.276,0.014   c0.123,0.008,0.243,0.014,0.361,0.014c1.212,0,2.246-0.557,4.85-3.719c0.193-0.234,0.358-0.496,0.488-0.778l1.995-4.315   c0.065-0.005,0.13-0.022,0.195-0.032c-0.179-0.409-0.344-0.83-0.483-1.273c-0.08-0.255-0.139-0.508-0.203-0.762   c-0.424-0.051-0.847,0.157-1.034,0.561l-2.3,4.974c-0.058,0.125-0.13,0.239-0.214,0.342c-2.508,3.045-3.011,3.004-3.513,2.976   c-0.134-0.01-0.271-0.019-0.418-0.019h-0.682c-0.147,0-0.284,0.009-0.418,0.019c-0.501,0.028-1.006,0.069-3.513-2.977   c-0.084-0.101-0.156-0.216-0.214-0.341l-2.269-4.908c-0.114-0.247-0.324-0.438-0.581-0.528c-0.211-0.075-0.44-0.076-0.651-0.006   c-0.153,0.041-0.385-0.057-0.617-0.252c-0.392-0.333-0.724-0.886-0.935-1.56c-0.471-1.5-0.084-2.659,0.044-2.747   c0.027-0.006,0.086-0.018,0.112-0.026c0.522-0.142,0.823-0.667,0.703-1.194c-0.034-0.149-0.107-0.277-0.198-0.39   c-0.847-5.763,1.724-7.314,3.448-8.341c0.161-0.097,0.312-0.185,0.447-0.271c1.273-0.804,3.775-1.181,4.65-1.26   c3.206-0.347,5.632,0.305,7.2,1.933c0.747,0.776,1.246,1.717,1.581,2.684c0.093-1.194,0.292-2.271,0.564-3.254   c-0.209-0.283-0.433-0.559-0.684-0.821c-2.023-2.108-5.011-2.963-8.859-2.55c-0.145,0.013-3.581,0.331-5.529,1.561   c-0.121,0.077-0.257,0.158-0.402,0.243c-1.781,1.062-5.423,3.254-4.416,10.311c-0.387,0.404-0.678,0.959-0.811,1.663   c-0.178,0.943-0.099,2.029,0.226,3.06C25.809,41.422,26.347,42.285,27.036,42.87z" fill="#313638"/><path d="M17.46,61.857c0.007,0.061,0.009,0.121,0.027,0.179c0.018,0.059,0.05,0.11,0.079,0.166   c0.033,0.062,0.062,0.124,0.107,0.178c0.012,0.014,0.015,0.032,0.028,0.046c4.26,4.66,9.915,7.515,16.161,8.229l0.266-1.765   c0.009-0.062,0.026-0.155,0.038-0.229c-5.63-0.628-10.73-3.151-14.632-7.252c0.076-0.395,0.163-0.783,0.257-1.096   c0.72-2.085,2.865-2.474,2.951-2.489c0.046-0.007,0.092-0.018,0.138-0.032l7.135-2.188l5.729,8.133l0.397,0.564   c0.188,0.267,0.494,0.426,0.822,0.427c0,0,0.001,0,0.002,0c0.326,0,0.632-0.158,0.822-0.424l4.009-5.638l2.178-3.063l3.925,1.204   l3.44-1.055l-7.469-2.291c-0.414-0.126-0.866,0.026-1.118,0.38l-5.783,8.133l-5.726-8.13c-0.251-0.357-0.705-0.509-1.12-0.383   l-7.778,2.386c-0.541,0.106-3.423,0.809-4.471,3.843c-0.172,0.566-0.327,1.261-0.423,1.905c-0.003,0.018,0.004,0.034,0.003,0.051   C17.442,61.716,17.451,61.785,17.46,61.857z" fill="#313638"/><path d="M85.209,27.075c0.162-0.096,0.312-0.186,0.447-0.271c1.273-0.804,3.775-1.181,4.649-1.26   c3.205-0.347,5.633,0.305,7.2,1.933c2.289,2.378,2.282,6.279,2.179,7.812c-0.109,0.111-0.201,0.24-0.25,0.399   c-0.161,0.525,0.127,1.077,0.646,1.249c0.01,0.006,0.018,0.013,0.028,0.019c0.216,0.133,0.594,1.276,0.137,2.762   c-0.423,1.379-1.25,1.916-1.549,1.814c-0.495-0.189-1.052,0.037-1.274,0.519l-2.3,4.974c-0.056,0.121-0.131,0.239-0.216,0.342   c-2.511,3.051-3.018,3.003-3.512,2.976c-0.134-0.01-0.271-0.019-0.418-0.019h-0.682c-0.147,0-0.284,0.009-0.418,0.019   c-0.494,0.026-1,0.075-3.513-2.977c-0.084-0.101-0.157-0.218-0.214-0.341l-2.27-4.908c-0.138-0.299-0.414-0.512-0.739-0.569   c-0.095-0.018-0.193-0.016-0.289-0.005c-0.052,0.201-0.096,0.402-0.158,0.604c-0.153,0.496-0.34,0.963-0.541,1.416   c0.063,0.011,0.126,0.029,0.19,0.035l1.976,4.27c0.129,0.281,0.293,0.544,0.488,0.781c2.858,3.471,3.827,3.794,5.212,3.706   c0.089-0.007,0.179-0.014,0.276-0.014h0.682c0.097,0,0.187,0.007,0.276,0.014c0.123,0.008,0.243,0.014,0.362,0.014   c1.213,0,2.246-0.557,4.849-3.719c0.194-0.236,0.36-0.497,0.489-0.778l1.994-4.312c1.345-0.097,2.643-1.352,3.227-3.249   c0.503-1.638,0.384-3.565-0.496-4.613c0.144-1.612,0.294-6.48-2.713-9.612c-2.023-2.108-5.008-2.963-8.859-2.55   c-0.145,0.013-3.58,0.331-5.529,1.561c-0.122,0.078-0.257,0.158-0.402,0.244c-0.693,0.413-1.669,0.996-2.544,1.968   c0.242,1.004,0.405,1.985,0.505,2.906C82.869,28.478,84.188,27.684,85.209,27.075z" fill="#313638"/><path d="M96.445,53.84l-5.767,8.108l-0.018,0.025l-0.138-0.197l-5.587-7.934c-0.251-0.357-0.705-0.509-1.12-0.383   l-7.464,2.29l3.439,1.055l3.917-1.201l2.144,3.045l3.98,5.652c0.188,0.267,0.494,0.426,0.822,0.427c0,0,0.001,0,0.002,0   c0.326,0,0.632-0.158,0.821-0.424l0.442-0.621l5.747-8.08l7.138,2.189c0.045,0.014,0.092,0.025,0.138,0.032   c0.023,0.004,2.221,0.374,2.94,2.451c0.105,0.349,0.18,0.736,0.247,1.125c-3.914,4.103-9.016,6.628-14.638,7.258   c0.012,0.076,0.026,0.157,0.037,0.231l0.265,1.764c6.234-0.716,11.888-3.57,16.16-8.226c0.013-0.014,0.016-0.032,0.028-0.046   c0.044-0.053,0.073-0.113,0.105-0.175c0.03-0.057,0.063-0.11,0.081-0.17c0.017-0.056,0.019-0.114,0.026-0.174   c0.009-0.073,0.018-0.143,0.01-0.216c-0.002-0.018,0.005-0.034,0.003-0.051c-0.094-0.622-0.207-1.284-0.406-1.941   c-1.038-3.001-3.92-3.701-4.46-3.806l-7.778-2.386C97.148,53.334,96.696,53.484,96.445,53.84z" fill="#313638"/><path d="M30.359,90.095l4.301-3.26c0.326-0.249,0.459-0.679,0.331-1.069c-0.128-0.39-0.489-0.655-0.896-0.662   l-5.394-0.111l-1.771-5.094c-0.135-0.388-0.501-0.647-0.911-0.647c-0.41,0-0.776,0.26-0.91,0.647l-1.772,5.094l-5.391,0.111   c-0.411,0.007-0.772,0.274-0.899,0.664c-0.128,0.391,0.007,0.821,0.334,1.068l4.298,3.259l-1.561,5.165   c-0.09,0.296-0.035,0.606,0.148,0.853c0.3,0.403,0.908,0.506,1.326,0.216l4.428-3.081l4.428,3.081   c0.164,0.114,0.354,0.174,0.551,0.174c0.304,0,0.594-0.146,0.775-0.391c0.183-0.247,0.238-0.557,0.148-0.854L30.359,90.095z    M26.571,91.748c-0.328-0.23-0.786-0.226-1.102,0l-3.386,2.356l1.194-3.95c0.116-0.383-0.02-0.803-0.34-1.047l-3.287-2.492   l4.119-0.085c0.404-0.005,0.764-0.266,0.896-0.647l1.355-3.895l1.354,3.895c0.133,0.382,0.493,0.642,0.891,0.647l4.125,0.085   l-3.288,2.493c-0.319,0.243-0.455,0.663-0.339,1.046l1.194,3.95L26.571,91.748z" fill="#313638"/><path d="M51.621,95.413l-5.394-0.111l-1.771-5.094c-0.135-0.388-0.501-0.647-0.911-0.647s-0.776,0.26-0.91,0.647   l-1.772,5.094l-5.391,0.111c-0.411,0.007-0.772,0.274-0.899,0.664c-0.128,0.391,0.007,0.821,0.334,1.068l4.298,3.259l-1.561,5.165   c-0.09,0.296-0.035,0.606,0.148,0.853c0.3,0.403,0.908,0.506,1.326,0.216l4.428-3.081l4.428,3.081   c0.164,0.114,0.354,0.174,0.551,0.174c0.304,0,0.594-0.146,0.775-0.391c0.183-0.247,0.238-0.557,0.148-0.854l-1.561-5.164   l4.301-3.26c0.326-0.249,0.459-0.679,0.331-1.069C52.389,95.686,52.028,95.42,51.621,95.413z M46.626,99.418   c-0.319,0.243-0.455,0.663-0.339,1.046l1.194,3.95l-3.385-2.356c-0.328-0.23-0.786-0.226-1.102,0l-3.386,2.356l1.194-3.95   c0.116-0.383-0.02-0.803-0.34-1.047l-3.287-2.492l4.119-0.085c0.404-0.005,0.764-0.266,0.896-0.647l1.355-3.895l1.354,3.895   c0.133,0.382,0.493,0.642,0.891,0.647l4.125,0.085L46.626,99.418z" fill="#313638"/><path d="M72.239,97.475l-5.394-0.111l-1.771-5.094c-0.135-0.388-0.501-0.647-0.911-0.647   c-0.41,0-0.776,0.26-0.91,0.647l-1.772,5.094l-5.391,0.111c-0.411,0.007-0.772,0.274-0.899,0.664   c-0.128,0.391,0.007,0.821,0.334,1.068l4.298,3.259l-1.561,5.165c-0.09,0.296-0.035,0.606,0.148,0.853   c0.299,0.403,0.908,0.506,1.326,0.216l4.428-3.081l4.428,3.081c0.164,0.114,0.354,0.174,0.551,0.174   c0.304,0,0.594-0.146,0.775-0.391c0.183-0.247,0.238-0.557,0.148-0.854l-1.561-5.164l4.301-3.26   c0.326-0.249,0.459-0.679,0.331-1.069C73.007,97.747,72.646,97.482,72.239,97.475z M67.245,101.479   c-0.319,0.243-0.455,0.663-0.339,1.046l1.194,3.95l-3.385-2.356c-0.328-0.23-0.786-0.225-1.102,0l-3.386,2.356l1.194-3.95   c0.116-0.383-0.02-0.803-0.34-1.047l-3.287-2.492l4.119-0.085c0.404-0.005,0.764-0.266,0.896-0.647l1.355-3.895l1.354,3.895   c0.133,0.382,0.493,0.642,0.891,0.647l4.125,0.085L67.245,101.479z" fill="#313638"/><path d="M92.858,95.413l-5.394-0.111l-1.771-5.094c-0.135-0.388-0.501-0.647-0.911-0.647s-0.776,0.26-0.91,0.647   l-1.772,5.094l-5.391,0.111c-0.411,0.007-0.772,0.274-0.899,0.664c-0.128,0.391,0.007,0.821,0.334,1.068l4.298,3.259l-1.561,5.165   c-0.09,0.296-0.035,0.606,0.148,0.853c0.3,0.403,0.908,0.506,1.326,0.216l4.428-3.081l4.428,3.081   c0.164,0.114,0.354,0.174,0.551,0.174c0.304,0,0.594-0.146,0.775-0.391c0.183-0.247,0.238-0.557,0.148-0.854l-1.561-5.164   l4.301-3.26c0.326-0.249,0.459-0.679,0.331-1.069C93.626,95.686,93.264,95.42,92.858,95.413z M87.863,99.418   c-0.319,0.243-0.455,0.663-0.339,1.046l1.194,3.95l-3.385-2.356c-0.328-0.23-0.786-0.226-1.102,0l-3.386,2.356l1.194-3.95   c0.116-0.383-0.02-0.803-0.34-1.047l-3.287-2.492l4.119-0.085c0.404-0.005,0.764-0.266,0.896-0.647l1.355-3.895l1.354,3.895   c0.133,0.382,0.493,0.642,0.891,0.647l4.125,0.085L87.863,99.418z" fill="#313638"/><path d="M111.279,86.797c-0.128-0.39-0.489-0.655-0.896-0.662l-5.394-0.111l-1.771-5.094   c-0.135-0.388-0.501-0.647-0.911-0.647s-0.776,0.26-0.91,0.647l-1.772,5.094l-5.391,0.111c-0.411,0.007-0.772,0.274-0.899,0.664   c-0.128,0.391,0.007,0.821,0.334,1.068l4.298,3.259l-1.561,5.165c-0.09,0.296-0.035,0.606,0.148,0.853   c0.3,0.403,0.908,0.506,1.326,0.216l4.428-3.081l4.428,3.081c0.164,0.114,0.354,0.174,0.551,0.174c0.304,0,0.594-0.146,0.775-0.391   c0.183-0.247,0.238-0.557,0.148-0.854l-1.561-5.164l4.301-3.26C111.274,87.617,111.407,87.188,111.279,86.797z M105.389,90.139   c-0.319,0.243-0.455,0.663-0.339,1.046l1.194,3.95l-3.385-2.356c-0.328-0.23-0.786-0.225-1.102,0l-3.386,2.356l1.194-3.95   c0.116-0.383-0.02-0.803-0.34-1.047l-3.287-2.492l4.119-0.085c0.404-0.005,0.764-0.266,0.896-0.647l1.355-3.895l1.354,3.895   c0.133,0.382,0.493,0.642,0.891,0.647l4.125,0.085L105.389,90.139z" fill="#313638"/></g></svg>